<svg xmlns="http://www.w3.org/2000/svg" xmlns:xlink="http://www.w3.org/1999/xlink"
     width="3.9in" height="5.1in" viewBox="0 0 390 510">
  <!-- Mech record card. 1 viewBox unit = 0.01 inch. -->
  <style>
    @import url('https://fonts.googleapis.com/css2?family=Alfa+Slab+One&amp;family=Roboto+Slab:wght@600&amp;display=swap');
    text { font-family: 'Alfa Slab One', 'Rockwell Extra Bold', Rockwell, Georgia, serif; fill: #000; }
    .lbl { font-size: 12px; }
    .hdr { font-size: 9px; }
    .sm { font-size: 7px; }
    .num { font-size: 10px; text-anchor: middle; }
    .title { font-size: 32px; text-anchor: middle; letter-spacing: 1px; }
    .box { fill: #fff; stroke: #000; stroke-width: 1.2; }
    .bar { fill: #b4b4b4; stroke: #000; stroke-width: 1.2; }
    .frame { fill: none; stroke: #000; stroke-width: 1.8; }
    .gl { stroke: #000; stroke-width: 0.6; }
    .val { font-family: 'Roboto Slab', Georgia, serif; font-weight: 600; font-size: 12px; fill: #1a1a1a; }
    .crossed { fill: #555; opacity: 0.45; }
  </style>

  <defs>
    <clipPath id="cardClip"><rect x="0" y="0" width="390" height="510" rx="4"/></clipPath>

    <!-- Stone texture. SVG filters don't survive svg2pdf, so for PDF export
         this will be swapped for a pre-rendered PNG of the same look. -->
    <filter id="mottle" x="0" y="0" width="100%" height="100%">
      <feTurbulence type="fractalNoise" baseFrequency="0.045" numOctaves="4" seed="4"/>
      <feColorMatrix type="matrix"
        values="0.6 0.6 0 0 0.02
                0.6 0.6 0 0 0.03
                0.6 0.6 0 0 0.05
                0    0    0 0 1"/>
    </filter>
    <filter id="streaks" x="0" y="0" width="100%" height="100%">
      <feTurbulence type="turbulence" baseFrequency="0.008 0.09" numOctaves="3" seed="9"/>
      <feColorMatrix type="matrix"
        values="0 0 0 0 0.12
                0 0 0 0 0.12
                0 0 0 0 0.13
                4.5 0 0 0 -1.9"/>
    </filter>

    <!-- 5x5 tracking grid used in the hardpoint boxes (29 x 29) -->
    <g id="minigrid">
      <rect class="box" x="0" y="0" width="29" height="29"/>
      <path class="gl" stroke-width="0.4" d="M5.8 0V29M11.6 0V29M17.4 0V29M23.2 0V29M0 5.8H29M0 11.6H29M0 17.4H29M0 23.2H29"/>
    </g>
  </defs>

  <!-- ===== Background texture + outer frame ===== -->
  <g id="texture" clip-path="url(#cardClip)">
    <rect x="0" y="0" width="390" height="510" filter="url(#mottle)"/>
    <g transform="rotate(-38 195 255)">
      <rect x="-180" y="-160" width="750" height="830" filter="url(#streaks)"/>
    </g>
    <!-- title panel backdrop (its outline is drawn below) -->
    <rect x="12" y="12" width="156" height="42" fill="#cfcfcf"/>
    <rect x="12" y="12" width="156" height="42" filter="url(#mottle)" opacity="0.35"/>
  </g>
  <rect x="1" y="1" width="388" height="508" rx="4" fill="none" stroke="#000" stroke-width="2.5"/>

  <!-- ===== Title + BP ===== -->
  <rect x="12" y="12" width="156" height="42" fill="none" stroke="#000" stroke-width="1.2"/>
  <text class="title" x="91" y="45" fill="#fff" style="fill:#fff">MECH</text>
  <text class="title" x="90" y="44">MECH</text>

  <rect class="box" x="172" y="12" width="78" height="42"/>
  <text class="lbl" x="176" y="25">B<tspan font-size="9">P</tspan>:</text>

  <!-- ===== Info column ===== -->
  <rect class="box" x="254" y="12"  width="124" height="36"/>
  <rect class="box" x="254" y="48"  width="124" height="36"/>
  <rect class="box" x="254" y="84"  width="124" height="36"/>
  <rect class="box" x="254" y="120" width="124" height="36"/>
  <rect class="box" x="254" y="156" width="124" height="36"/>
  <rect class="box" x="254" y="192" width="124" height="36"/>
  <rect class="box" x="254" y="228" width="124" height="194"/>
  <text class="lbl" x="258" y="25">NAME:</text>
  <text class="lbl" x="258" y="61">CLASS:</text>
  <text class="lbl" x="258" y="97">M<tspan font-size="9">V</tspan>:</text>
  <text class="lbl" x="258" y="133">T<tspan font-size="9">P</tspan>:</text>
  <text class="lbl" x="258" y="169">H<tspan font-size="9">C</tspan>:</text>
  <text class="lbl" x="258" y="205">ARMOR:</text>
  <text class="lbl" x="258" y="241">NOTES:</text>

  <!-- ===== Armor grid ===== -->
  <!-- cells: columns x=44..250 (10 x 20.6), rows y=90..390 (15 x 20) -->
  <rect class="box" x="12" y="58" width="238" height="364"/>
  <rect class="bar" x="44" y="58"  width="206" height="15"/>
  <rect class="bar" x="44" y="390" width="206" height="15"/>
  <text class="hdr" x="50" y="69">HIT LOCATIONS</text>
  <text class="hdr" x="50" y="401">CRITICAL SYSTEMS AREA</text>

  <g transform="translate(28 74) rotate(-25)">
    <text class="sm" text-anchor="middle" x="0" y="-1" style="font-size:5.5px">ARMOR</text>
    <text class="sm" text-anchor="middle" x="0" y="6" style="font-size:5.5px">GRID</text>
  </g>
  <g transform="translate(28 406) rotate(-25)">
    <text class="sm" text-anchor="middle" x="0" y="-1" style="font-size:5.5px">ARMOR</text>
    <text class="sm" text-anchor="middle" x="0" y="6" style="font-size:5.5px">GRID</text>
  </g>

  <path class="gl" d="
    M64.6 73V390 M85.2 73V390 M105.8 73V390 M126.4 73V390 M147 73V390
    M167.6 73V390 M188.2 73V390 M208.8 73V390 M229.4 73V390
    M64.6 405V422 M85.2 405V422 M105.8 405V422 M126.4 405V422 M147 405V422
    M167.6 405V422 M188.2 405V422 M208.8 405V422 M229.4 405V422
    M12 110H250 M12 130H250 M12 150H250 M12 170H250 M12 190H250
    M12 210H250 M12 230H250 M12 250H250 M12 270H250 M12 290H250
    M12 310H250 M12 330H250 M12 350H250 M12 370H250"/>
  <path d="M44 58V422 M12 90H250 M12 390H250" stroke="#000" stroke-width="1.2"/>

  <g id="hit-numbers">
    <text class="num" x="54.3"  y="86">1</text>
    <text class="num" x="74.9"  y="86">2</text>
    <text class="num" x="95.5"  y="86">3</text>
    <text class="num" x="116.1" y="86">4</text>
    <text class="num" x="136.7" y="86">5</text>
    <text class="num" x="157.3" y="86">6</text>
    <text class="num" x="177.9" y="86">7</text>
    <text class="num" x="198.5" y="86">8</text>
    <text class="num" x="219.1" y="86">9</text>
    <text class="num" x="239.7" y="86">10</text>
  </g>
  <use xlink:href="#hit-numbers" href="#hit-numbers" y="332"/>

  <g id="armor-values">
    <text class="num" x="28" y="104">150</text>
    <text class="num" x="28" y="124">140</text>
    <text class="num" x="28" y="144">130</text>
    <text class="num" x="28" y="164">120</text>
    <text class="num" x="28" y="184">110</text>
    <text class="num" x="28" y="204">100</text>
    <text class="num" x="28" y="224">90</text>
    <text class="num" x="28" y="244">80</text>
    <text class="num" x="28" y="264">70</text>
    <text class="num" x="28" y="284">60</text>
    <text class="num" x="28" y="304">50</text>
    <text class="num" x="28" y="324">40</text>
    <text class="num" x="28" y="344">30</text>
    <text class="num" x="28" y="364">20</text>
    <text class="num" x="28" y="384">10</text>
  </g>

  <rect class="frame" x="12" y="58" width="238" height="364"/>

  <!-- ===== Hardpoints ===== -->
  <rect class="box" x="12" y="426" width="366" height="72"/>
  <rect class="bar" x="12" y="426" width="366" height="14"/>
  <text class="hdr" x="195" y="436.5" text-anchor="middle">HARDPOINTS</text>
  <path d="M12 469H378 M195 440V498" stroke="#000" stroke-width="1.2"/>
  <path class="gl" stroke-width="0.9" d="M80 440V498 M123 440V498 M263 440V498 M306 440V498"/>
  <use xlink:href="#minigrid" href="#minigrid" x="166" y="440"/>
  <use xlink:href="#minigrid" href="#minigrid" x="166" y="469"/>
  <use xlink:href="#minigrid" href="#minigrid" x="349" y="440"/>
  <use xlink:href="#minigrid" href="#minigrid" x="349" y="469"/>

  <text class="sm" x="15"  y="451" style="font-size:7.5px">LEFT ARM:</text>
  <text class="sm" x="15"  y="480" style="font-size:7.5px">LEFT TORSO:</text>
  <text class="sm" x="198" y="451" style="font-size:7.5px">RIGHT ARM:</text>
  <text class="sm" x="198" y="480" style="font-size:7.5px">RIGHT TORSO:</text>
  <g class="lbl">
    <text class="lbl" x="83"  y="452">R<tspan font-size="9">V</tspan>:</text>
    <text class="lbl" x="126" y="452">H<tspan font-size="9">V</tspan>:</text>
    <text class="lbl" x="83"  y="481">R<tspan font-size="9">V</tspan>:</text>
    <text class="lbl" x="126" y="481">H<tspan font-size="9">V</tspan>:</text>
    <text class="lbl" x="266" y="452">R<tspan font-size="9">V</tspan>:</text>
    <text class="lbl" x="309" y="452">H<tspan font-size="9">V</tspan>:</text>
    <text class="lbl" x="266" y="481">R<tspan font-size="9">V</tspan>:</text>
    <text class="lbl" x="309" y="481">H<tspan font-size="9">V</tspan>:</text>
  </g>
  <rect class="frame" x="12" y="426" width="366" height="72"/>

  <!-- ===== Sample data (the app will generate this group) ===== -->
  <g id="data">
    <!-- unused armor layers crossed out: armor 110 → rows 150..120 -->
    <rect class="crossed" x="44" y="90"  width="206" height="80"/>
    <path d="M44 90L250 170 M44 170L250 90" stroke="#333" stroke-width="0.8" opacity="0.6"/>

    <text class="val" data-field="bp"    x="211" y="46" text-anchor="middle" font-size="16">185</text>
    <text class="val" data-field="name"  x="258" y="42">Ironclad</text>
    <text class="val" data-field="class" x="258" y="78">Heavy</text>
    <text class="val" data-field="mv"    x="258" y="114">4</text>
    <text class="val" data-field="tp"    x="258" y="150">2</text>
    <text class="val" data-field="hc"    x="258" y="186">3</text>
    <text class="val" data-field="armor" x="258" y="222">110</text>
    <text class="val" data-field="notes" x="258" y="260" font-size="10">
      <tspan x="258">Jump jets (MV +2)</tspan>
      <tspan x="258" dy="14">ECM suite</tspan>
    </text>

    <text class="val" data-field="la-rv" x="101" y="467" text-anchor="middle" font-size="11">2</text>
    <text class="val" data-field="la-hv" x="144" y="467" text-anchor="middle" font-size="11">1</text>
    <text class="val" data-field="ra-rv" x="284" y="467" text-anchor="middle" font-size="11">2</text>
    <text class="val" data-field="ra-hv" x="327" y="467" text-anchor="middle" font-size="11">1</text>
    <text class="val" data-field="lt-rv" x="101" y="496" text-anchor="middle" font-size="11">1</text>
    <text class="val" data-field="lt-hv" x="144" y="496" text-anchor="middle" font-size="11">0</text>
    <text class="val" data-field="rt-rv" x="284" y="496" text-anchor="middle" font-size="11">1</text>
    <text class="val" data-field="rt-hv" x="327" y="496" text-anchor="middle" font-size="11">0</text>
  </g>
</svg>
